<svg xmlns="http://www.w3.org/2000/svg" width="116" height="89" viewBox="0 0 116 89">
    <g fill="none" fill-rule="evenodd">
        <g>
            <path fill="#FF6A61" d="M49.396 16.987l23.866 44.75c2.6 4.874.756 10.93-4.117 13.53-1.448.772-3.065 1.176-4.706 1.176H16.706c-5.523 0-10-4.477-10-10 0-1.641.404-3.257 1.176-4.706l23.867-44.75c2.599-4.873 8.656-6.716 13.53-4.117 1.75.933 3.183 2.367 4.117 4.117z" transform="translate(-13.83 -20.638) rotate(-8 132.353 3.297)"/>
            <path fill="#7F85AC" d="M96.226 94.556l23.84-44.736c2.597-4.874.751-10.931-4.123-13.528-1.447-.772-3.062-1.175-4.703-1.175H63.56c-5.522 0-10 4.477-10 10 0 1.64.404 3.255 1.176 4.703l23.84 44.736c2.597 4.874 8.653 6.72 13.527 4.122 1.753-.934 3.188-2.369 4.123-4.122z" style="mix-blend-mode:multiply" transform="translate(-13.83 -20.638) rotate(-8 132.353 3.297)"/>
        </g>
        <path fill="#FFF" fill-rule="nonzero" d="M49.712 69.93c.469 0 .87-.165 1.201-.497.332-.332.498-.697.498-1.096 0-.383-.176-.996-.527-1.84l-4.488-11.086c-.211-.554-.385-.998-.522-1.33-.137-.332-.305-.642-.504-.931-.2-.29-.46-.526-.785-.71-.324-.183-.729-.275-1.213-.275-.476 0-.877.092-1.201.276-.324.183-.586.423-.785.72-.2.297-.387.67-.563 1.12-.175.449-.326.833-.45 1.154L35.977 66.59c-.18.445-.309.793-.387 1.043-.078.25-.117.492-.117.727 0 .406.168.77.504 1.09.336.32.722.48 1.16.48.515 0 .886-.15 1.113-.451.227-.301.5-.881.82-1.74l.82-2.204h6.985l.82 2.157c.11.265.24.572.393.92.152.347.295.605.428.773.132.168.297.3.492.398.195.098.43.147.703.147zm-3.773-7.007h-5.133l2.543-7.09 2.59 7.09zm9.421-7.488c.43 0 .801-.139 1.114-.416.312-.278.468-.662.468-1.155 0-.507-.16-.894-.48-1.16-.32-.265-.688-.398-1.102-.398-.43 0-.806.146-1.13.44-.325.292-.487.665-.487 1.118 0 .5.158.887.475 1.16.316.274.697.41 1.142.41zm-.035 14.496c.469 0 .856-.164 1.16-.492.305-.328.457-.813.457-1.453v-9.247c0-.57-.152-1.015-.457-1.335-.304-.32-.691-.48-1.16-.48s-.85.16-1.142.48c-.293.32-.44.796-.44 1.43v9.152c0 .625.147 1.105.44 1.441.293.336.673.504 1.142.504zM84.169 69.638c.57 0 1.004-.13 1.3-.393.298-.261.446-.603.446-1.025 0-.414-.15-.758-.451-1.031-.3-.274-.733-.41-1.295-.41h-7.055V54.275c0-.711-.162-1.24-.486-1.588-.324-.348-.748-.522-1.272-.522-.515 0-.931.176-1.248.528-.316.351-.474.879-.474 1.582v13.23c0 .75.166 1.293.498 1.629.332.336.877.504 1.635.504h8.402zm13.887.293c.39 0 .74-.135 1.049-.404.308-.27.462-.569.462-.897 0-.187-.1-.607-.298-1.26-.2-.652-.3-1.279-.3-1.88.009-.641.014-1.223.018-1.747.004-.523.006-1.16.006-1.91 0-1.187-.166-2.14-.498-2.86-.332-.718-.9-1.243-1.705-1.575-.805-.332-1.91-.498-3.316-.498-1.258 0-2.309.172-3.153.515-.843.344-1.465.782-1.863 1.313-.398.531-.598 1.078-.598 1.64 0 .36.131.655.393.885.262.23.572.346.932.346.398 0 .658-.072.779-.217.121-.144.328-.443.621-.896.293-.454.645-.793 1.055-1.02.41-.227 1.021-.34 1.834-.34.945 0 1.568.197 1.869.592.3.395.47 1.014.51 1.857-.672.196-1.295.362-1.87.498-.574.137-1.263.288-2.068.452-.805.164-1.309.27-1.512.316-.968.211-1.73.625-2.285 1.242-.554.617-.832 1.364-.832 2.239 0 .648.168 1.25.504 1.804.336.555.815.994 1.436 1.319.62.324 1.341.486 2.162.486.898 0 1.709-.15 2.431-.451.723-.301 1.471-.752 2.245-1.354.359.586.699 1.033 1.02 1.342.32.309.644.463.972.463zm-5.567-2.098c-.593 0-1.074-.17-1.441-.51-.367-.34-.55-.751-.55-1.236 0-.469.155-.834.468-1.096.312-.261.64-.437.984-.527.344-.09.963-.23 1.858-.422.894-.191 1.576-.373 2.045-.545v.457c0 1.11-.145 1.907-.434 2.39-.25.438-.643.796-1.178 1.073-.535.278-1.119.416-1.752.416zm16.828 2.098c.805 0 1.541-.162 2.21-.486.667-.325 1.236-.784 1.704-1.377.47-.594.827-1.295 1.073-2.104.246-.809.369-1.697.369-2.666 0-1.312-.22-2.447-.662-3.404-.442-.957-1.063-1.688-1.863-2.192-.801-.504-1.733-.755-2.795-.755-.922 0-1.696.166-2.32.498-.626.332-1.239.81-1.84 1.435v-4.887c0-.586-.133-1.037-.399-1.353-.266-.317-.645-.475-1.137-.475-.468 0-.834.166-1.095.498-.262.332-.393.823-.393 1.471v13.969c0 .601.135 1.056.404 1.365.27.309.631.463 1.084.463.446 0 .813-.154 1.102-.463.289-.309.433-.764.433-1.365v-.317c.352.407.635.711.85.914.215.204.475.4.78.592.304.192.673.346 1.107.463.433.117.896.176 1.388.176zm-.808-2.473c-.945 0-1.71-.342-2.291-1.025-.582-.684-.873-1.662-.873-2.936 0-.867.136-1.615.41-2.244.273-.629.648-1.11 1.125-1.441.476-.332 1.02-.498 1.629-.498.594 0 1.113.166 1.558.498.446.332.79.802 1.032 1.412.242.61.363 1.336.363 2.18 0 1.304-.291 2.306-.873 3.005-.582.7-1.275 1.05-2.08 1.05z" transform="translate(-13.83 -20.638)"/>
    </g>
</svg>
